<svg width="414.55625px" height="122px" xmlns="http://www.w3.org/2000/svg" viewBox="42.72187500000001 14 414.55625 122" style="background:#fff" preserveAspectRatio="xMidYMid"><defs><filter id="editing-marble" x="-100%" y="-100%" width="300%" height="300%"><feFlood flood-color="#b44607" result="flood-1"></feFlood><feComposite operator="in" in="flood-1" in2="SourceAlpha" result="flood-2"></feComposite><feTurbulence baseFrequency="0.07" type="fractalNoise" numOctaves="1" seed="2" result="bs-1"></feTurbulence><feGaussianBlur stdDeviation="1" in="flood-2" result="bs-2"></feGaussianBlur><feDisplacementMap scale="110" in="bs-2" in2="bs-1" result="bs-3"></feDisplacementMap><feComposite operator="in" in="bs-3" in2="SourceAlpha" result="texture"></feComposite><feMerge><feMergeNode in="SourceGraphic"></feMergeNode><feMergeNode in="texture"></feMergeNode></feMerge></filter></defs><g filter="url(#editing-marble)"><g transform="translate(105.13499385118484, 104.76000022888184)"><path d="M7.68 0L0.64 0L8.32-42.24L22.08-42.24L32.06-13.18L37.38-42.24L44.48-42.18L36.67 0L22.02 0L12.80-27.97L7.68 0ZM61.44-3.52L61.44-3.52L61.44-3.52Q59.46 1.28 53.12 1.28L53.12 1.28L53.12 1.28Q49.86 1.28 47.81-0.96L47.81-0.96L47.81-0.96Q46.08-2.94 46.08-4.93L46.08-4.93L46.08-4.93Q46.08-10.11 48.45-20.22L48.45-20.22L50.82-32.64L63.81-33.92L59.90-13.70L59.90-13.70Q58.82-8.96 58.82-7.30L58.82-7.30L58.82-7.30Q58.82-3.65 61.44-3.52ZM51.97-41.54L51.97-41.54L51.97-41.54Q51.97-44.03 54.05-45.38L54.05-45.38L54.05-45.38Q56.13-46.72 59.14-46.72L59.14-46.72L59.14-46.72Q62.14-46.72 63.97-45.38L63.97-45.38L63.97-45.38Q65.79-44.03 65.79-41.54L65.79-41.54L65.79-41.54Q65.79-39.04 63.78-37.76L63.78-37.76L63.78-37.76Q61.76-36.48 58.75-36.48L58.75-36.48L58.75-36.48Q55.74-36.48 53.86-37.76L53.86-37.76L53.86-37.76Q51.97-39.04 51.97-41.54ZM82.18-3.52L82.18-3.52L82.18-3.52Q80.19 1.28 73.86 1.28L73.86 1.28L73.86 1.28Q70.66 1.28 68.61-0.96L68.61-0.96L68.61-0.96Q66.94-2.82 66.94-4.93L66.94-4.93L66.94-4.93Q66.94-9.73 69.18-20.22L69.18-20.22L73.86-44.80L86.85-46.08L80.64-13.70L80.64-13.70Q79.55-8.96 79.55-7.30L79.55-7.30L79.55-7.30Q79.55-3.65 82.18-3.52ZM113.54-10.82L113.54-10.82L113.54-10.82Q115.14-9.73 115.14-7.33L115.14-7.33L115.14-7.33Q115.14-4.93 113.92-3.39L113.92-3.39L113.92-3.39Q112.70-1.86 110.72-0.83L110.72-0.83L110.72-0.83Q106.62 1.28 102.21 1.28L102.21 1.28L102.21 1.28Q97.79 1.28 95.20 0.32L95.20 0.32L95.20 0.32Q92.61-0.64 90.88-2.43L90.88-2.43L90.88-2.43Q87.49-5.82 87.49-12.03L87.49-12.03L87.49-12.03Q87.49-21.70 92.74-27.58L92.74-27.58L92.74-27.58Q98.37-33.92 108.16-33.92L108.16-33.92L108.16-33.92Q114.24-33.92 117.25-31.36L117.25-31.36L117.25-31.36Q119.49-29.44 119.49-26.30L119.49-26.30L119.49-26.30Q119.49-15.04 100.03-15.04L100.03-15.04L100.03-15.04Q99.78-13.38 99.78-11.97L99.78-11.97L99.78-11.97Q99.78-9.02 101.09-7.90L101.09-7.90L101.09-7.90Q102.40-6.78 104.83-6.78L104.83-6.78L104.83-6.78Q107.26-6.78 109.86-7.90L109.86-7.90L109.86-7.90Q112.45-9.02 113.54-10.82ZM100.48-17.79L100.48-17.79L100.48-17.79Q105.02-17.79 107.65-20.61L107.65-20.61L107.65-20.61Q110.27-23.30 110.27-27.58L110.27-27.58L110.27-27.58Q110.27-29.06 109.73-29.86L109.73-29.86L109.73-29.86Q109.18-30.66 108.10-30.66L108.10-30.66L108.10-30.66Q107.01-30.66 106.08-30.24L106.08-30.24L106.08-30.24Q105.15-29.82 104.19-28.42L104.19-28.42L104.19-28.42Q101.82-25.22 100.48-17.79ZM158.72-4.80L158.72-4.80L158.72-4.80Q158.72-9.28 160.51-18.24L160.51-18.24L151.04-18.24L147.52 0L134.14 0L142.27-42.24L155.78-42.24L152.06-23.36L161.54-23.36L165.06-42.24L178.56-42.24L178.56-42.24Q177.66-37.50 176.51-32.19L176.51-32.19L174.34-21.76L174.34-21.76Q171.90-9.60 171.90-4.29L171.90-4.29L171.90-4.29Q171.90-2.11 172.61-0.90L172.61-0.90L172.61-0.90Q169.41 1.28 165.66 1.28L165.66 1.28L165.66 1.28Q161.92 1.28 160.32-0.51L160.32-0.51L160.32-0.51Q158.72-2.30 158.72-4.80ZM194.05 1.28L194.05 1.28L194.05 1.28Q179.97 1.28 179.97-11.97L179.97-11.97L179.97-11.97Q179.97-21.38 185.15-27.46L185.15-27.46L185.15-27.46Q190.66-33.92 200.19-33.92L200.19-33.92L200.19-33.92Q207.10-33.92 210.62-30.72L210.62-30.72L210.62-30.72Q214.14-27.52 214.14-20.80L214.14-20.80L214.14-20.80Q214.14-10.56 208.64-4.61L208.64-4.61L208.64-4.61Q203.26 1.28 194.05 1.28ZM195.71-26.56L195.71-26.56L195.71-26.56Q194.94-24.83 194.34-22.24L194.34-22.24L194.34-22.24Q193.73-19.65 192.96-15.55L192.96-15.55L192.96-15.55Q192.19-11.46 192.19-6.40L192.19-6.40L192.19-6.40Q192.19-4.74 192.74-3.65L192.74-3.65L192.74-3.65Q193.28-2.56 194.75-2.56L194.75-2.56L194.75-2.56Q196.22-2.56 197.15-3.26L197.15-3.26L197.15-3.26Q198.08-3.97 198.78-5.63L198.78-5.63L198.78-5.63Q200.06-8.58 201.09-14.05L201.09-14.05L201.09-14.05Q202.11-19.52 202.21-21.89L202.21-21.89L202.21-21.89Q202.30-24.26 202.30-26.02L202.30-26.02L202.30-26.02Q202.30-27.78 201.79-28.93L201.79-28.93L201.79-28.93Q201.28-30.08 199.84-30.08L199.84-30.08L199.84-30.08Q198.40-30.08 197.44-29.18L197.44-29.18L197.44-29.18Q196.48-28.29 195.71-26.56ZM247.74-4.38L247.74-4.38L247.74-4.38Q245.06-1.66 241.38-0.19L241.38-0.19L241.38-0.19Q237.70 1.28 234.05 1.28L234.05 1.28L234.05 1.28Q230.40 1.28 229.12 0.64L229.12 0.64L227.14 11.52L214.14 12.80L222.98-32.64L233.41-33.73L232.58-29.31L232.58-29.31Q235.26-33.86 240.83-33.86L240.83-33.86L240.83-33.86Q247.10-33.86 250.43-29.82L250.43-29.82L250.43-29.82Q253.38-26.18 253.38-20.61L253.38-20.61L253.38-20.61Q253.38-15.04 251.90-11.07L251.90-11.07L251.90-11.07Q250.43-7.10 247.74-4.38ZM233.28-22.34L229.89-3.58L229.89-3.58Q231.23-2.43 232.90-2.43L232.90-2.43L232.90-2.43Q234.56-2.43 235.52-3.07L235.52-3.07L235.52-3.07Q236.48-3.71 237.18-4.99L237.18-4.99L237.18-4.99Q239.10-8.45 240.64-18.94L240.64-18.94L240.64-18.94Q241.09-22.02 241.09-25.02L241.09-25.02L241.09-25.02Q241.09-28.03 240.42-28.99L240.42-28.99L240.42-28.99Q239.74-29.95 238.46-29.95L238.46-29.95L238.46-29.95Q234.56-29.95 233.28-22.34L233.28-22.34ZM283.14-10.82L283.14-10.82L283.14-10.82Q284.74-9.73 284.74-7.33L284.74-7.33L284.74-7.33Q284.74-4.93 283.52-3.39L283.52-3.39L283.52-3.39Q282.30-1.86 280.32-0.83L280.32-0.83L280.32-0.83Q276.22 1.28 271.81 1.28L271.81 1.28L271.81 1.28Q267.39 1.28 264.80 0.32L264.80 0.32L264.80 0.32Q262.21-0.64 260.48-2.43L260.48-2.43L260.48-2.43Q257.09-5.82 257.09-12.03L257.09-12.03L257.09-12.03Q257.09-21.70 262.34-27.58L262.34-27.58L262.34-27.58Q267.97-33.92 277.76-33.92L277.76-33.92L277.76-33.92Q283.84-33.92 286.85-31.36L286.85-31.36L286.85-31.36Q289.09-29.44 289.09-26.30L289.09-26.30L289.09-26.30Q289.09-15.04 269.63-15.04L269.63-15.04L269.63-15.04Q269.38-13.38 269.38-11.97L269.38-11.97L269.38-11.97Q269.38-9.02 270.69-7.90L270.69-7.90L270.69-7.90Q272-6.78 274.43-6.78L274.43-6.78L274.43-6.78Q276.86-6.78 279.46-7.90L279.46-7.90L279.46-7.90Q282.05-9.02 283.14-10.82ZM270.08-17.79L270.08-17.79L270.08-17.79Q274.62-17.79 277.25-20.61L277.25-20.61L277.25-20.61Q279.87-23.30 279.87-27.58L279.87-27.58L279.87-27.58Q279.87-29.06 279.33-29.86L279.33-29.86L279.33-29.86Q278.78-30.66 277.70-30.66L277.70-30.66L277.70-30.66Q276.61-30.66 275.68-30.24L275.68-30.24L275.68-30.24Q274.75-29.82 273.79-28.42L273.79-28.42L273.79-28.42Q271.42-25.22 270.08-17.79Z" fill="#e49c49"></path></g></g><style>text {
  font-size: 64px;
  font-family: Arial Black;
  dominant-baseline: central;
  text-anchor: middle;
}</style></svg>